<?xml version="1.0" encoding="utf-8"?>
<!-- Generator: Adobe Illustrator 17.0.0, SVG Export Plug-In . SVG Version: 6.00 Build 0)  -->
<!DOCTYPE svg PUBLIC "-//W3C//DTD SVG 1.1//EN" "http://www.w3.org/Graphics/SVG/1.1/DTD/svg11.dtd">
<svg version="1.1" id="Layer_1" xmlns="http://www.w3.org/2000/svg" xmlns:xlink="http://www.w3.org/1999/xlink" x="0px" y="0px"
	 width="500px" height="500px" viewBox="0 0 500 500" enable-background="new 0 0 500 500" xml:space="preserve">
<g>
	<g>
		<path fill="#fec60f" d="M500.477,500.477c-166.674,0-333.326,0-499.954,0c0-166.674,0-333.326,0-499.954
			c166.674,0,333.326,0,499.954,0C500.477,167.198,500.477,333.849,500.477,500.477z M136.613,200.674
			c0.085,0.248,0.17,0.497,0.256,0.745c0.855,0.075,1.739,0.324,2.56,0.19c1.802-0.295,3.59-0.722,5.354-1.203
			c13.893-3.783,20.988,4.789,22.79,14.676c1.273,6.986,0.859,13.943-0.85,20.821c-2.807,11.299-8.887,20.747-16.727,29.143
			c-11.623,12.447-25.023,21.896-42.621,23.162c-17.496,1.259-32.252-4.317-42.373-19.288c-6.686-9.889-9.389-21.087-8.916-32.975
			c0.757-19.059,6.661-36.641,16.266-52.938c13.674-23.201,32.512-41.465,55.168-55.817c15.809-10.014,32.25-18.777,50.828-22.555
			c15.426-3.137,30.461-2.051,44.918,4.687c5.732,2.671,9.159,7.096,10.645,13.065c2.018,8.109,2.143,16.355,0.884,24.57
			c-2.531,16.512-6.954,32.578-12.806,48.179c-7.304,19.471-15.422,38.637-22.768,58.093c-8.884,23.529-17.09,47.299-20.368,72.415
			c-1.038,7.958-1.457,15.962,1.098,23.767c1.936,5.917,5.782,9.754,12.109,10.935c6.283,1.173,12.297,0.006,18.18-1.954
			c13.597-4.529,25.601-12.034,36.853-20.692c26.107-20.087,47.496-44.587,64.932-72.368c11.363-18.106,23.076-35.841,37.372-51.774
			c16.5-18.389,35-34.209,57.535-44.87c6.846-3.238,13.833-5.833,21.578-5.247c8.718,0.661,12.926,5.646,11.365,14.245
			c-1.064,5.862-2.679,11.69-4.689,17.304c-7.584,21.182-17.374,41.423-26.767,61.834c-11.548,25.096-23.152,50.171-34.299,75.446
			c-5.896,13.368-8.381,27.556-6.586,42.218c1.607,13.12,8.186,22.658,20.771,27.597c6.597,2.589,13.506,3.414,20.519,3.91
			c4.746,0.335,8.942-1.002,12.733-3.545c1.713-1.149,3.384-2.843,4.239-4.678c1.436-3.084-0.76-5.659-4.089-5
			c-2.426,0.48-4.769,1.408-7.122,2.214c-3.064,1.05-6.036,2.439-9.164,3.221c-9.814,2.456-16.855-1.466-20.224-10.979
			c-1.862-5.258-2.439-10.679-2.31-16.225c0.329-14.235,4.329-27.592,9.981-40.471c10.581-24.109,23.11-47.243,35.611-70.391
			c10.046-18.602,20.118-37.209,27.732-56.989c3.546-9.213,6.028-18.706,5.717-28.719c-0.399-12.865-7.026-20.827-19.541-23.622
			c-6.978-1.558-13.91-1.32-20.791,0.401c-13.769,3.446-26.086,9.911-37.415,18.341c-17.982,13.381-32.975,29.781-47.233,46.916
			c-0.497,0.597-0.992,1.195-1.488,1.792c0.457-3.946,1.314-7.653,2.017-11.39c2.977-15.827-1.524-29.139-13.609-39.808
			c-5.104-4.506-10.834-7.829-17.857-7.958c-1.266-0.023-3.092,0.744-3.706,1.737c-0.959,1.549,0.028,3.248,1.493,4.302
			c0.786,0.566,1.77,0.905,2.709,1.205c2.059,0.657,4.349,0.87,6.173,1.914c2.382,1.363,4.855,3.009,6.488,5.145
			c3.395,4.441,4.237,9.818,4.423,15.343c0.47,13.918-2.591,27.144-7.816,39.906c-12.119,29.599-29.903,55.47-52.115,78.361
			c-12.423,12.802-25.05,25.402-39.735,35.68c-5.876,4.112-11.922,7.998-19.281,8.957c-4.717,0.615-8.028-1.456-9.214-6.056
			c-0.595-2.307-0.984-4.791-0.811-7.146c0.383-5.219,0.751-10.503,1.876-15.595c7.41-33.526,18.518-65.819,33.167-96.865
			c7.396-15.675,14.505-31.43,18.736-48.32c3.86-15.412,5.121-30.912,0.977-46.453c-4.122-15.461-13.629-26.097-29.093-30.895
			c-18.111-5.619-36.483-6.103-54.732-1.129c-27.391,7.466-52.422,19.852-74.348,38.036c-23.664,19.625-41.186,43.416-48.709,73.748
			c-4.701,18.951-3.271,37.222,6.484,54.416c10.786,19.009,33.183,36.179,63.372,28.68c26.741-6.642,46.981-22.234,61.116-45.705
			c6.251-10.381,8.733-21.768,6.437-33.852c-1.807-9.513-6.596-17.088-16.127-20.27c-9.071-3.028-17.579-0.591-25.413,4.475
			C137.655,199.184,137.19,200.016,136.613,200.674z"/>
		<path fill="#000000" d="M136.613,200.674c0.577-0.658,1.042-1.49,1.748-1.947c7.834-5.066,16.342-7.503,25.413-4.475
			c9.531,3.181,14.319,10.757,16.127,20.27c2.296,12.084-0.186,23.472-6.437,33.852c-14.134,23.471-34.374,39.063-61.116,45.705
			c-30.19,7.499-52.587-9.671-63.372-28.68c-9.756-17.194-11.185-35.465-6.484-54.416c7.524-30.332,25.046-54.123,48.709-73.748
			c21.926-18.185,46.958-30.57,74.348-38.036c18.249-4.974,36.62-4.49,54.732,1.129c15.464,4.798,24.971,15.434,29.093,30.895
			c4.143,15.541,2.883,31.041-0.977,46.453c-4.23,16.89-11.34,32.645-18.736,48.32c-14.649,31.046-25.757,63.339-33.167,96.865
			c-1.125,5.091-1.493,10.375-1.876,15.595c-0.173,2.356,0.216,4.84,0.811,7.146c1.186,4.6,4.497,6.672,9.214,6.056
			c7.359-0.96,13.405-4.845,19.281-8.957c14.685-10.278,27.313-22.878,39.735-35.68c22.213-22.891,39.996-48.762,52.115-78.361
			c5.225-12.762,8.286-25.988,7.816-39.906c-0.187-5.526-1.029-10.903-4.423-15.343c-1.633-2.136-4.106-3.782-6.488-5.145
			c-1.824-1.044-4.114-1.257-6.173-1.914c-0.94-0.3-1.923-0.638-2.709-1.205c-1.464-1.055-2.452-2.754-1.493-4.302
			c0.615-0.992,2.44-1.76,3.706-1.737c7.024,0.129,12.754,3.452,17.857,7.958c12.085,10.669,16.587,23.981,13.609,39.808
			c-0.703,3.736-1.56,7.443-2.017,11.39c0.496-0.597,0.992-1.195,1.488-1.792c14.258-17.135,29.251-33.535,47.233-46.916
			c11.328-8.43,23.646-14.895,37.415-18.341c6.881-1.722,13.813-1.96,20.791-0.401c12.515,2.795,19.142,10.757,19.541,23.622
			c0.31,10.013-2.171,19.506-5.717,28.719c-7.614,19.78-17.686,38.387-27.732,56.989c-12.501,23.147-25.03,46.282-35.611,70.391
			c-5.652,12.879-9.652,26.237-9.981,40.471c-0.128,5.546,0.448,10.967,2.31,16.225c3.369,9.514,10.41,13.435,20.224,10.979
			c3.127-0.783,6.099-2.172,9.164-3.221c2.353-0.806,4.697-1.734,7.122-2.214c3.33-0.659,5.525,1.916,4.089,5
			c-0.855,1.836-2.526,3.53-4.239,4.678c-3.792,2.543-7.988,3.88-12.733,3.545c-7.013-0.496-13.922-1.32-20.519-3.91
			c-12.586-4.94-19.165-14.478-20.771-27.597c-1.796-14.663,0.69-28.85,6.586-42.218c11.147-25.275,22.751-50.35,34.299-75.446
			c9.392-20.411,19.182-40.652,26.767-61.834c2.01-5.614,3.625-11.441,4.689-17.304c1.561-8.599-2.647-13.585-11.365-14.245
			c-7.745-0.587-14.732,2.008-21.578,5.247c-22.536,10.66-41.035,26.48-57.535,44.87c-14.296,15.933-26.009,33.668-37.372,51.774
			c-17.436,27.781-38.826,52.28-64.932,72.368c-11.252,8.658-23.256,16.164-36.853,20.692c-5.883,1.96-11.897,3.127-18.18,1.954
			c-6.328-1.181-10.173-5.019-12.109-10.935c-2.554-7.805-2.136-15.809-1.098-23.767c3.277-25.116,11.484-48.886,20.368-72.415
			c7.346-19.456,15.464-38.622,22.768-58.093c5.852-15.601,10.275-31.668,12.806-48.179c1.259-8.215,1.134-16.461-0.884-24.57
			c-1.486-5.968-4.913-10.394-10.645-13.065c-14.457-6.737-29.492-7.823-44.918-4.687c-18.578,3.778-35.019,12.54-50.828,22.555
			c-22.655,14.352-41.494,32.616-55.168,55.817c-9.605,16.297-15.509,33.879-16.266,52.938c-0.472,11.888,2.231,23.086,8.916,32.975
			c10.121,14.971,24.878,20.547,42.373,19.288c17.598-1.267,30.998-10.715,42.621-23.162c7.84-8.396,13.92-17.844,16.727-29.143
			c1.709-6.878,2.123-13.835,0.85-20.821c-1.802-9.887-8.897-18.459-22.79-14.676c-1.764,0.48-3.552,0.908-5.354,1.203
			c-0.821,0.134-1.704-0.115-2.56-0.19C136.783,201.17,136.698,200.922,136.613,200.674z"/>
	</g>
</g>
</svg>
