<?xml version="1.0" encoding="utf-8"?>
<!-- Generator: Adobe Illustrator 17.0.0, SVG Export Plug-In . SVG Version: 6.00 Build 0)  -->
<!DOCTYPE svg PUBLIC "-//W3C//DTD SVG 1.1//EN" "http://www.w3.org/Graphics/SVG/1.1/DTD/svg11.dtd">
<svg version="1.1" id="Layer_1" xmlns="http://www.w3.org/2000/svg" xmlns:xlink="http://www.w3.org/1999/xlink" x="0px" y="0px"
	 width="500px" height="500px" viewBox="0 0 500 500" enable-background="new 0 0 500 500" xml:space="preserve">
<g>
	<g>
		<path fill="#fec60f" d="M1,500.852C1,334.295,1,167.795,1,1.148c166.568,0,333.136,0,499.852,0c0,166.42,0,332.989,0,499.705
			C334.432,500.852,167.864,500.852,1,500.852z M4.871,250.817c82.035,82.034,164.358,164.357,245.953,245.951
			c81.998-81.997,164.301-164.299,245.739-245.736C414.755,169.194,332.48,86.887,250.657,5.033
			C168.942,86.748,86.726,168.963,4.871,250.817z"/>
		<path d="M4.871,250.817C86.726,168.963,168.942,86.748,250.657,5.033c81.823,81.854,164.098,164.16,245.906,245.999
			c-81.438,81.437-163.741,163.739-245.739,245.736C169.229,415.174,86.906,332.852,4.871,250.817z M252.548,28.879
			c-74.279,74.279-148.564,148.565-222.365,222.365c73.468,73.472,147.541,147.548,220.575,220.587
			c73.973-73.973,148.259-148.259,222.386-222.387C399.775,176.085,325.793,102.114,252.548,28.879z"/>
		<path fill="#fec60f" d="M252.548,28.879c73.245,73.235,147.227,147.206,220.597,220.565
			c-74.127,74.128-148.414,148.414-222.386,222.387c-73.035-73.038-147.107-147.115-220.575-220.587
			C103.984,177.444,178.269,103.158,252.548,28.879z M343.606,368.973c0-28.412,0-55.999,0-83.554c-3.37,0-6.41,0-9.963,0
			c0,23.165,0,45.933,0,69.759c-14.601-22.866-28.537-44.752-42.588-66.563c-0.956-1.483-2.659-3.187-4.225-3.43
			c-3.374-0.523-6.886-0.161-10.503-0.161c0,28.196,0,55.91,0,83.545c3.366,0,6.403,0,9.904,0c0-23.236,0-46.062,0-69.507
			c0.819,0.971,1.176,1.31,1.434,1.711c13.868,21.539,27.701,43.101,41.649,64.588c0.964,1.484,2.643,3.187,4.214,3.451
			C336.73,369.349,340.085,368.973,343.606,368.973z M192.322,215.56c-0.481-0.595-0.905-0.912-1.048-1.326
			c-7.706-22.268-15.448-44.524-22.995-66.846c-0.939-2.776-2.27-3.68-5.01-3.429c-2.217,0.203-4.468,0.041-6.93,0.041
			c0.368,1.446,0.503,2.264,0.781,3.031c9.378,25.91,18.858,51.783,28.061,77.754c1.377,3.886,3.969,3.179,6.658,3.186
			c2.879,0.008,5.563,0.603,7.025-3.461c9.269-25.772,18.855-51.431,28.325-77.131c0.332-0.902,0.553-1.844,0.834-2.796
			c-9.851-1.706-9.836-1.7-12.983,7.153C207.506,172.928,199.956,194.114,192.322,215.56z M205.431,290.631
			c1.765,2.25,3.678,4.689,5.272,6.72c29.676-29.675,59.062-59.06,88.586-88.583c-1.932-1.916-4.119-4.084-6.024-5.973
			C263.793,232.267,234.41,261.651,205.431,290.631z"/>
		<path d="M343.606,368.973c-3.521,0-6.876,0.376-10.077-0.161c-1.571-0.264-3.251-1.966-4.214-3.451
			c-13.947-21.488-27.78-43.049-41.649-64.588c-0.259-0.402-0.615-0.74-1.434-1.711c0,23.445,0,46.271,0,69.507
			c-3.5,0-6.538,0-9.904,0c0-27.635,0-55.349,0-83.545c3.617,0,7.128-0.362,10.503,0.161c1.566,0.243,3.269,1.947,4.225,3.43
			c14.052,21.811,27.988,43.697,42.588,66.563c0-23.826,0-46.594,0-69.759c3.553,0,6.593,0,9.963,0
			C343.606,312.973,343.606,340.561,343.606,368.973z"/>
		<path d="M192.322,215.56c7.635-21.446,15.184-42.632,22.717-63.824c3.147-8.854,3.132-8.859,12.983-7.153
			c-0.281,0.952-0.502,1.895-0.834,2.796c-9.47,25.7-19.056,51.359-28.325,77.131c-1.462,4.064-4.146,3.469-7.025,3.461
			c-2.689-0.007-5.281,0.7-6.658-3.186c-9.203-25.971-18.683-51.845-28.061-77.754c-0.278-0.767-0.413-1.585-0.781-3.031
			c2.462,0,4.713,0.162,6.93-0.041c2.74-0.25,4.071,0.653,5.01,3.429c7.547,22.322,15.29,44.578,22.995,66.846
			C191.417,214.648,191.84,214.965,192.322,215.56z"/>
		<path d="M205.431,290.631c28.979-28.98,58.362-58.364,87.833-87.836c1.905,1.889,4.092,4.057,6.024,5.973
			c-29.524,29.523-58.909,58.907-88.586,88.583C209.109,295.32,207.196,292.88,205.431,290.631z"/>
	</g>
</g>
</svg>
